<?xml version="1.0" encoding="UTF-8" standalone="no"?>
<!DOCTYPE svg PUBLIC "-//W3C//DTD SVG 1.1//EN" "http://www.w3.org/Graphics/SVG/1.1/DTD/svg11.dtd">
<svg width="100%" height="100%" viewBox="0 0 4267 4267" version="1.1" xmlns="http://www.w3.org/2000/svg"
    xmlns:xlink="http://www.w3.org/1999/xlink" xml:space="preserve" xmlns:serif="http://www.serif.com/"
    style="fill-rule:evenodd;clip-rule:evenodd;stroke-linecap:round;stroke-linejoin:round;stroke-miterlimit:1.5;">
    <g id="Body">
        <g id="Cloth">
            <path
                d="M1629.167,2683.333c0,0 -70.85,12.758 -108.333,45.833c-37.483,33.075 -108.333,95.833 -108.333,95.833c-504.631,191.358 -793.104,331.021 -904.167,441.667c-179.378,173.522 -313.189,589.76 -454.167,1000l4154.167,0c11.582,-1.251 -150.391,-774.565 -275,-962.5c-53.355,-80.47 -134.17,-142.141 -216.799,-192.089c-93.056,-56.25 -341.535,-145.411 -341.535,-145.411l-508.333,-191.667c-90.976,-84.656 -165.602,-123.894 -225,-120.833c16.389,47.942 44.847,82.085 87.5,100c45.1,309.591 -357.619,509.952 -545.833,470.833c-51.154,-0.505 -114.399,-0.547 -163.607,-8.621c-246.586,-40.462 -442.09,-182.171 -469.727,-437.212c33.584,-23.683 62.062,-53.229 79.167,-95.833Z"
                style="fill:#d3d5e2;" />
        </g>
        <path id="neck-skin" serif:id="neck skin"
            d="M1637.5,2233.333c0,0 26.271,311.174 20.833,329.167c-5.438,17.993 -29.355,117.294 -33.333,125c-3.978,7.706 -47.498,83.767 -62.5,87.5c-15.002,3.733 -22.24,19.387 -8.333,62.5c13.906,43.113 50.441,150.764 162.5,241.667c112.059,90.903 153.987,88.104 200,108.333c46.013,20.229 217.784,64.053 366.667,37.5c90.095,-16.068 157.436,-33.472 207.602,-66.91c87.804,-58.525 101.694,-52.567 142.398,-112.256c72.999,-107.047 62.792,-84.862 75,-129.167c20.97,-76.107 35.495,-136.152 16.667,-158.333c-26.879,-31.666 -49.266,-41.752 -83.333,-95.833c-34.067,-54.081 -23.829,-106.782 -25,-137.5c-1.171,-30.718 1.508,-245.655 20.833,-291.667c19.325,-46.012 -73.397,69.016 -116.667,104.167c-69.461,56.427 -218.16,184.606 -345.833,200c-127.673,15.394 -230.951,-73.213 -270.833,-95.833c-78.596,-44.577 -116.682,-69.011 -154.167,-104.167c-37.485,-35.156 -112.5,-104.167 -112.5,-104.167Z"
            style="fill:#f9d32a;" />
        <path id="path1"
            d="M50,4264.328c0,-3.333 11.683,-42.589 15.277,-51.332c1.742,-4.237 8.858,-25.692 15.814,-47.679c21.884,-69.174 72.017,-214.81 92.687,-269.258c3.989,-10.509 16.787,-44.423 28.439,-75.366c11.652,-30.942 23.153,-61.035 25.556,-66.874c2.404,-5.838 11.357,-27.811 19.896,-48.828c8.539,-21.017 18.252,-44.423 21.584,-52.013c3.332,-7.59 13.24,-30.518 22.018,-50.951c49.893,-116.141 97.312,-206.126 141.522,-268.557c15.145,-21.388 67.14,-76.546 85.175,-90.358c36.328,-27.821 62.361,-46.983 76.259,-56.127c36.292,-23.881 61.281,-39.062 86.516,-52.56c8.615,-4.608 23.183,-12.53 32.373,-17.605c19.204,-10.605 58.283,-30.309 85.631,-43.176c10.338,-4.864 21.617,-10.351 25.063,-12.193c3.446,-1.842 21.303,-9.989 39.683,-18.103c18.379,-8.115 39.526,-17.53 46.993,-20.923c7.467,-3.393 17.335,-7.57 21.93,-9.284c4.595,-1.713 18.693,-7.539 31.328,-12.946c38.256,-16.372 109.584,-45.907 128.446,-53.187c9.764,-3.769 22.922,-9.045 29.24,-11.725c41.921,-17.785 52.652,-22.171 64.745,-26.461c7.467,-2.649 20.625,-7.858 29.24,-11.575c8.615,-3.717 34.931,-14.683 58.479,-24.369c23.549,-9.685 48.455,-20.064 55.347,-23.064c6.892,-2.999 19.11,-8.04 27.151,-11.202c8.041,-3.162 24.958,-10.737 37.594,-16.834c20.263,-9.777 25.636,-13.618 45.535,-32.556c45.287,-43.102 82.454,-72.289 115.284,-90.533c18.434,-10.244 51.448,-22.279 61.115,-22.279c5.39,0 6.615,-1.175 9.429,-9.023c7.712,-21.518 14.075,-54.283 18.245,-93.942c2.891,-27.495 2.375,-175.729 -0.676,-195.314c-0.724,-4.671 -1.86,-20.434 -2.518,-35.029c-0.652,-14.595 -2.076,-29.881 -3.153,-33.968c-1.071,-4.087 -4.461,-24.149 -7.517,-44.583l-5.557,-37.152c0,0 1019.849,-26.373 1019.804,-16.886c-0.047,11.093 -15.846,170.981 -16.86,175.092c-2.281,9.29 -3.64,127.607 -1.755,152.529c4.142,54.714 12.093,98.785 19.726,109.355c2.116,2.931 6.918,4.428 18.117,5.647c20.647,2.248 33.577,5.166 49.7,11.219c32.706,12.278 102.45,56.969 137.647,88.204c13.65,12.113 24.202,19.712 29.955,21.569c4.885,1.578 28.618,10.406 52.739,19.62c24.123,9.213 55.139,20.847 68.923,25.853c13.784,5.006 33.521,12.686 43.86,17.067c10.338,4.381 32.895,13.022 50.126,19.202c17.23,6.181 38.846,14.079 48.036,17.552c44.119,16.673 83.56,31.299 104.426,38.722c12.637,4.495 36.602,13.049 53.259,19.009c16.656,5.96 47.672,16.886 68.923,24.28c21.251,7.394 41.457,14.623 44.904,16.064c3.446,1.441 21.773,8.189 40.726,14.996c94.652,33.99 162.699,64.33 232.991,103.888c73.547,41.388 141.268,92.946 194.913,148.394c58.798,60.773 90.771,114.581 133.218,224.198c15.219,39.299 36.465,104.987 43.258,133.747c1.655,7.006 8.38,33.755 14.944,59.443c6.564,25.688 14.55,58.169 17.746,72.181c7.117,31.191 16.622,70.812 33.359,139.055c7.017,28.607 13.537,55.834 14.489,60.505c0.946,4.671 4.138,18.045 7.078,29.722c7.04,27.962 21.533,89.315 23.319,98.718c1.375,7.288 5.808,26.655 17.699,77.489c3.278,14.012 8.004,36.94 10.505,50.951c2.5,14.011 7.283,37.101 10.63,51.309c3.347,14.208 6.086,26.867 6.086,28.129c0,1.263 -3.685,2.296 -8.189,2.296c-7.26,0 -8.319,-0.66 -9.341,-5.838c-0.63,-3.211 -3.148,-16.825 -5.583,-30.252c-12.099,-66.666 -62.839,-286.785 -119.167,-516.945c-35.473,-144.949 -50.502,-195.425 -80.525,-270.44c-13.614,-34.018 -40.89,-89.958 -53.988,-110.731l-9.445,-14.977l-6.047,4.376c-11.633,8.422 -48.282,53.401 -68.393,83.94c-68.733,104.381 -137.692,245.063 -184.715,376.828c-6.876,19.266 -15.173,42.194 -18.441,50.951c-3.267,8.757 -9.383,28.82 -13.588,44.583c-4.206,15.763 -10.042,37.508 -12.969,48.322l-5.322,19.661l17.973,105.594c16.712,98.181 26.242,162.289 29.663,199.536l1.405,15.391l-7.54,0c-8.907,0 -8.113,2.486 -12.875,-40.337c-5.387,-48.431 -23.079,-160.815 -37.597,-238.835c-12.834,-68.963 -36.399,-232.436 -37.991,-263.543c-1.151,-22.643 -1.013,-23.75 3.276,-26.086c3.871,-2.105 4.761,-1.774 6.486,2.417c1.093,2.671 4.337,23.963 7.196,47.316c4.542,37.104 11.961,89.726 20.652,146.486l2.6,16.984l11.218,-40.336c6.17,-22.185 13.346,-46.069 15.946,-53.075c2.6,-7.006 9.643,-26.113 15.651,-42.459c45.895,-124.896 95.605,-230.049 154.052,-325.873c41.188,-67.527 61.15,-95.203 92.964,-128.886l16.458,-17.427l-13.115,-16.541c-37.34,-47.092 -102.042,-103.917 -168.122,-147.65c-81.496,-53.936 -166.104,-94.032 -299.111,-141.75c-26.081,-9.357 -53.531,-19.353 -60.997,-22.211c-7.467,-2.859 -49.761,-18.009 -93.986,-33.667c-101.621,-35.978 -184.618,-66.906 -334.169,-124.524c-39.63,-15.268 -72.845,-27.962 -73.811,-28.208c-0.961,-0.247 -1.627,10.062 -1.46,22.906c1.304,106.977 -37.337,220.367 -107.061,314.107c-44.95,60.434 -104.224,115.571 -164.357,152.889c-88.458,54.894 -170.05,83.309 -292.398,101.826c-49.253,7.455 -82.989,9.691 -146.095,9.682c-61.615,-0.015 -87.214,-1.806 -137.949,-9.687c-88.737,-13.785 -153.725,-31.692 -219.71,-60.541c-98.952,-43.261 -173.562,-92.816 -242.643,-161.161c-53.811,-53.237 -87.074,-98.161 -115.874,-156.497c-23.006,-46.6 -39.985,-112.558 -39.985,-155.331c0,-7.148 -0.823,-12.996 -1.829,-12.996c-1.005,0 -7.35,2.492 -14.098,5.538c-12.782,5.77 -64.114,27.753 -94.767,40.586c-9.764,4.087 -45.948,18.849 -80.409,32.804c-34.461,13.955 -73.935,30.012 -87.719,35.683c-13.784,5.671 -47.619,19.568 -75.188,30.882c-239.561,98.313 -354.939,155.277 -464.704,229.434c-74.196,50.126 -121.929,97.087 -163.773,161.125c-7.63,11.677 -14.388,23.258 -15.018,25.737c-0.709,2.788 1.606,10.076 6.068,19.107c8.127,16.451 35.896,81.71 63.124,148.347c10.019,24.52 28.797,69.899 41.73,100.842c12.933,30.942 32.03,76.799 42.439,101.903c10.409,25.104 27.975,66.661 39.036,92.349c11.061,25.688 26.858,63.317 35.103,83.62c10.375,25.546 15.224,35.353 15.747,31.845c0.416,-2.789 -0.303,-20.833 -1.595,-40.099c-6.932,-103.31 -8.558,-212.111 -3.28,-219.449c2.608,-3.626 2.86,-3.593 5.103,0.666c2.3,4.368 3.781,27.267 8.388,129.617c6.095,135.439 16.378,260.397 31.052,377.359l5.66,45.113l-7.667,0c-9.227,0 -7.59,6.89 -17.4,-73.243c-6.398,-52.266 -9.393,-82.014 -14.952,-148.493c-1.106,-13.215 -3.197,-20.803 -9.66,-35.029c-4.537,-9.988 -12.96,-29.624 -18.718,-43.636c-5.758,-14.011 -27.698,-66.555 -48.756,-116.764c-60.019,-143.102 -107.982,-258.199 -133.587,-320.569c-12.942,-31.526 -27.974,-67.351 -33.404,-79.612c-5.43,-12.26 -11.244,-25.51 -12.919,-29.446l-3.046,-7.154l-15.871,29.446c-54.674,101.436 -124.214,263.697 -192.765,449.795c-31.311,85.002 -52.127,145.127 -93.527,270.149l-34.623,104.556l-6.909,0c-3.802,0 -6.912,-0.986 -6.912,-2.19l-0.001,-0Zm2168.966,-891.612c154.241,-8.214 283.57,-46.219 383.407,-112.671c91.771,-61.082 162.839,-141.277 207.529,-234.182c33.618,-69.885 46.858,-123.809 48.637,-198.081c0.991,-41.658 0.783,-45.395 -2.831,-50.291c-7.089,-9.593 -34.101,-30.891 -67.291,-53.056c-39.612,-26.454 -63.898,-40.063 -83.731,-46.92c-15.967,-5.52 -47.28,-11.208 -49.467,-8.985c-2.22,2.258 18.141,33.647 30.439,46.927c12.051,13.011 31.386,29.64 32.796,28.206c0.444,-0.454 -1.197,-6.179 -3.667,-12.722c-5.046,-13.405 -4.196,-19.079 2.709,-18.06c6.096,0.901 11.143,10.172 16.66,30.602c6.817,25.251 6.769,81.769 -0.094,114.44c-7.169,34.111 -15.328,57.8 -31.541,91.568c-46.58,97.018 -125.036,175.225 -226.657,225.935c-56.108,27.999 -118.93,45.57 -205.723,57.543c-45.151,6.228 -136.154,7.692 -181.704,2.923c-146.683,-15.357 -275.099,-67.426 -383.022,-155.305c-77.338,-62.975 -135.36,-141.597 -154.64,-209.547c-6.822,-24.044 -10.34,-53.66 -8.477,-71.365c3.345,-31.786 15.829,-65.947 24.1,-65.947c5.991,0 7.311,5.576 3.329,14.064c-5.147,10.971 -4.162,12.913 3.029,5.97c14.718,-14.21 43.871,-56.625 40.957,-59.588c-2.048,-2.081 -27.683,6.123 -41.948,13.425c-33.777,17.29 -65.178,40.548 -111.983,82.943c-42.302,38.316 -38.486,31.818 -35.702,60.802c4.526,47.12 12.417,80.96 28.605,119.054c3.722,8.758 7.882,17.741 12.541,27.161c70.666,142.896 222.331,265.752 406.001,328.882c106.561,36.626 227.274,52.689 347.745,46.273l-0.004,0Zm32.373,-153.894c135.959,-15.414 228.645,-50.697 312.434,-118.934c52.02,-42.365 94.523,-96.057 124.319,-157.045c26.714,-54.678 38.052,-105.329 35.261,-157.511l-1.036,-19.518l-12.622,-8.282c-36.676,-24.066 -68.969,-70.662 -85.229,-122.983c-6.075,-19.551 -12.794,-74.381 -15.034,-122.67c-2.409,-51.982 11.694,-199.14 16.582,-261.736l1.299,-31.296c-34.019,-3.062 -984.712,-0.85 -984.789,8.833c-0.089,11.198 2.218,24.411 2.007,24.689c-0.209,0.277 1.826,15.314 4.524,33.412c7.811,52.381 11.443,104.063 12.699,180.695c1.225,75.186 -0.416,107.171 -7.829,151.786c-10.758,64.757 -39.052,120.465 -78.169,153.905c-18.197,15.556 -19.232,18.732 -17.168,52.697c7.089,116.641 141.342,262.91 309.646,337.361c73.058,32.318 148.663,51.062 241.083,59.772c28.004,2.639 106.143,0.891 142.022,-3.176l-0.001,-0Z"
            style="fill:#111113;fill-rule:nonzero;" />
        <path id="Body-light" serif:id="Body light"
            d="M2633.333,2220.833l-54.167,62.5c-42.64,198.852 9.043,411.576 58.333,470.833c33.856,40.702 1084.479,338.088 1241.667,600c215.189,358.555 195.277,625.477 266.667,912.5l66.667,0c-17.243,-81.474 -50.691,-231.198 -50.691,-231.198c7.948,-22.926 -153.634,-638.277 -232.642,-731.302c-109.972,-129.483 -260.811,-229.008 -423.393,-288.234c-194.444,-70.833 -408.089,-156.432 -634.94,-236.766c-107.568,-76.311 -146.351,-110.335 -225,-120.833c-33.046,-137.066 -20.047,-289.045 -12.5,-437.5Z"
            style="fill:#fff;fill-opacity:0.32;" />
        <path id="body-shadow-left" serif:id="body shadow left"
            d="M1641.667,2245.833c40.244,39.66 84.686,86.012 125,112.5c0,0 9.722,286.806 -70.833,412.5c-80.556,125.694 -299.842,191.052 -462.5,262.5c-222.917,97.917 -592.552,164.055 -725,400c-127.083,226.389 -280.711,575.46 -362.5,833.333l-87.5,0c85.259,-298.144 199.921,-586.783 341.667,-866.667c-15.98,2.664 110.904,-165.317 233.333,-229.167c136.869,-71.38 391.026,-187.965 545.833,-250c191.694,-76.816 222.607,-85.74 316.667,-170.833c47.248,-42.744 103.652,-48.206 129.167,-70.833c72.478,-64.276 -6.782,-435.915 16.667,-433.333Z"
            style="fill:#2d2d2d;fill-opacity:0.19;" />
        <path id="left-arm-shadow" serif:id="left arm shadow"
            d="M650,3712.5c4.142,188.608 17.812,373.417 41.667,554.167l-50,0c-14.458,-157.057 -18.446,-347.14 8.333,-554.167Z"
            style="fill:#2d2d2d;fill-opacity:0.28;" />
        <path id="right-arm-shadow" serif:id="right arm shadow"
            d="M3583.333,3700l79.167,566.667l75,0l-154.167,-566.667Z" style="fill:#2d2d2d;fill-opacity:0.28;" />
    </g>
    <g id="Face">
        <path id="Face-Skin" serif:id="Face Skin"
            d="M1470.833,937.5l-75,416.667c0,0 33.813,277.875 49.785,373.709c12.572,75.43 46.049,201.291 46.049,201.291c0,0 48.523,167.582 89.495,234.249c38.224,62.195 156.338,165.751 156.338,165.751c0,0 94.909,64.924 127.781,80.719c53.472,25.694 168.053,90.114 168.053,90.114c52.258,44.974 150.311,27.598 237.5,-4.167c0,0 120.8,-59.354 158.283,-82.781c38.889,-24.306 104.217,-88.052 104.217,-88.052c0,0 85.485,-85.356 126.749,-139.944c66.667,-88.194 98.251,-214.222 98.251,-214.222c0,0 37.191,-177.697 45.371,-268.629c11.806,-131.25 25.463,-518.871 25.463,-518.871l-145.833,-266.667l-270.833,-312.5l-366.667,-66.667l-475,79.167"
            style="fill:#f6d629;" />
        <path id="Left-eye" serif:id="Left eye"
            d="M1625,1387.5c48.165,41.016 111.899,55.586 187.5,50c0,0 79.044,-8.58 105.268,-15.927c33.626,-9.422 62.729,-40.584 48.899,-38.239l-23.558,-39.813l-34.775,-35.187c-35.645,-12.601 -73.279,-16.16 -112.5,-12.5l-59.966,10.856l-48.368,18.311l-40.398,27.898l-22.102,34.602Z"
            style="transform-box: fill-box; transform-origin: center;fill:#fff;">
            <animateTransform attributeName="transform" type="scale" values="1 1; 1 0; 1 0; 1 1; 1 1"
                keyTimes="0; 0.05; 0.15; 0.2; 1" dur="2s" repeatCount="indefinite" additive="sum" />
        </path>
        <path id="Right-eye" serif:id="Right eye"
            d="M2283.333,1395.833c0,0 49.125,46.697 158.333,41.667c109.209,-5.03 109.121,-4.673 141.667,-16.667c32.546,-11.994 32.314,-17.694 41.667,-29.167c9.353,-11.472 -53.133,-64.806 -70.833,-66.667c-17.701,-1.86 -74.839,-38.686 -120.833,-29.167c-45.994,9.519 -112.5,25 -112.5,25c0,0 -29.112,40.337 -33.333,45.833c-4.221,5.497 -4.167,29.167 -4.167,29.167Z"
            style="transform-box: fill-box; transform-origin: center;fill:#fff;">
            <animateTransform attributeName="transform" type="scale" values="1 1; 1 0; 1 0; 1 1; 1 1"
                keyTimes="0; 0.05; 0.15; 0.2; 1" dur="2s" repeatCount="indefinite" additive="sum" />
        </path>
        <path id="Left-ear" serif:id="Left ear"
            d="M1320.833,1445.833c0,0 -58.45,41.655 -58.333,100c0.117,58.345 9.467,122.386 16.667,145.833c7.2,23.447 44.207,112.94 54.167,120.833c9.96,7.894 50,50 50,50c0,0 88.28,22.14 83.333,-12.5c-4.426,-30.997 -9.272,-65.614 -16.667,-100l-12.5,-70.833l-25,-183.333c0,0 -29.371,-53.704 -41.667,-58.333c-12.296,-4.629 -50,8.333 -50,8.333Z"
            style="fill:#daaa29;" />
        <path id="Right-ear" serif:id="Right ear"
            d="M2829.167,1520.833c0,0 -22.724,123.924 -25,183.333c-2.276,59.409 -16.667,158.333 -16.667,158.333c0,0 29.348,13.213 41.667,12.5c12.318,-0.713 71.234,-45.791 79.167,-58.333c7.933,-12.542 53.328,-116.259 58.333,-150c5.005,-33.741 5.497,-177.673 -4.167,-183.333c-9.664,-5.66 -59.637,-67.282 -83.333,-41.667c-23.697,25.616 -42.97,23.099 -50,79.167Z"
            style="fill:#fad42e;" />
        <path id="right-face-light" serif:id="right face light"
            d="M2804.167,1129.167c0,0 21.176,347.02 12.5,429.167c-8.676,82.147 -21.943,278.673 -41.667,362.5c-19.724,83.827 -57.842,198.585 -91.667,233.333c-33.825,34.748 -115.038,150.555 -183.333,195.833c-68.295,45.278 -79.568,64.306 -91.667,70.833c-12.099,6.528 -10.048,-11.115 25,-45.833c35.048,-34.718 122.222,-102.083 158.333,-162.5c35.628,-59.608 98.77,-130.78 116.667,-208.333c29.167,-126.389 57.639,-357.639 58.333,-550c0.306,-84.733 -4.167,-358.333 -4.167,-358.333l41.667,33.333Z"
            style="fill:#fbed8d;" />
        <path
            d="M2212.5,1329.167c15.112,4.199 10.485,205.368 29.167,245.833c20.677,44.788 -24.212,21.249 -36.005,-12.786c-26.101,-75.331 -10.953,-237.991 6.838,-233.047Z"
            style="fill:#fff;fill-opacity:0.32;" />
        <path id="Face-shadow" serif:id="Face shadow"
            d="M1854.167,2366.667c-51.389,-62.5 -114.215,-117.137 -154.167,-187.5c-46.528,-81.944 -99.26,-197.615 -125,-304.167c-29.861,-123.611 -54.167,-392.516 -54.167,-437.5c0,-84.722 1.318,-299.506 20.833,-375c26.389,-102.083 62.035,-320.279 141.667,-379.167c82.639,-61.111 304.678,-95.76 420.833,-79.167c262.5,37.5 273.687,91.034 345.833,195.833c79.545,115.546 220.447,322.571 362.5,379.167l-62.5,-158.333c-163.792,-184.091 -315.229,-429.936 -450,-458.333l-325,-37.5c-208.011,27.859 -361.17,80.593 -450,162.5l-150,504.167l41.667,350c0,0 40.972,286.111 75,400c29.881,100.011 62.411,203.092 129.167,283.333c68.75,82.639 166.249,153.97 279.167,212.5"
            style="fill:#2d2d2d;fill-opacity:0.26;" />
        <path id="Face-path" serif:id="Face path"
            d="M2726.826,2094.492c-124.883,221.813 -312.588,335.131 -312.588,335.131c0,0 -59.513,60.629 -145.802,98.883c-25.116,11.135 -54.253,16.896 -85.169,19.43c-163.976,13.444 -210.568,-40.367 -293.186,-102.813c-111.875,-84.56 -304.537,-174.142 -378.066,-404.547c-9.078,-28.446 -34.711,-107.254 -42.917,-149.67c-1.92,-9.925 -3.676,-18.254 -3.901,-18.509c-0.226,-0.255 -6.47,1.409 -13.878,3.699c-21.631,6.686 -51.888,4.797 -68.911,-4.301c-32.294,-17.26 -65.263,-58.279 -90.076,-112.07c-25.152,-54.526 -36.826,-104.612 -38.434,-164.892c-2.159,-80.953 15.475,-131.147 53.27,-151.623c6.974,-3.778 12.679,-7.874 12.679,-9.102c0,-2.592 -16.458,-51.273 -29.306,-86.684c-4.872,-13.428 -16.818,-43.521 -26.546,-66.874c-30.28,-72.686 -42.532,-112.101 -54.113,-174.084c-5.529,-29.592 -5.95,-35.529 -5.946,-83.931l0.005,-52.087l-6.474,13.873c-3.561,7.63 -7.113,16.532 -7.894,19.783c-2.725,11.344 -11.541,29.119 -14.442,29.119c-9.371,0 -13.259,-18.807 -14.264,-68.997c-1.969,-98.356 18.45,-184.709 67.019,-283.417c21.635,-43.971 40.427,-73.904 70.011,-111.518c14.734,-18.733 52.287,-58.698 68.943,-73.369c53.699,-47.301 120.321,-83.74 177.527,-97.096c40.999,-9.572 100.077,-13.929 124.748,-9.199l9.878,1.894l1.313,-7.679c7.035,-40.873 19.1,-74.416 39.034,-108.52c10.976,-18.78 34.581,-47.967 53.862,-66.602c19.803,-19.139 61.994,-50.024 82.351,-60.283c32.627,-16.442 85.063,-32.906 129.639,-40.706c34.731,-6.077 90.758,-9.606 106.257,-6.694c6.645,1.249 12.88,1.769 13.855,1.155c2.702,-1.697 43.177,2.816 77.318,8.62c121.683,20.688 245.327,67.88 331.144,126.391c60.53,41.27 134.696,108.095 189.567,170.803c9.195,10.509 47.77,50.644 85.722,89.189c37.951,38.545 74.697,76.759 81.653,84.919c56.197,65.916 92.549,142.436 110.421,232.442c18.051,90.894 21.754,182.633 11.484,284.479c-3.778,37.476 -7.454,61.638 -17.923,117.825c-5.37,28.821 -25.026,106.727 -34.818,137.994c-5.118,16.347 -11.418,36.887 -13.999,45.644c-2.58,8.757 -5.929,19.991 -7.441,24.963l-2.749,9.041l11.923,6.118c39.276,20.154 57.807,71.713 55.843,155.385c-1.134,48.625 -6.321,78.891 -21.6,126.185c-20.029,62.001 -57.186,117.909 -95.015,142.961c-18.649,12.35 -43.198,18.446 -61.351,15.232c-7.246,-1.282 -14.399,-2.81 -15.897,-3.395c-2.007,-0.781 -3.974,5.802 -7.466,25.003c-20.133,110.675 -48.161,179.824 -55.297,192.499Zm-1180.416,-14.214c8.043,18.599 45.219,100.664 92.389,152.142c55.229,60.273 182.542,148.052 226.487,180.33c16.697,12.264 -32.948,-50.304 -19.729,-57.422c15.428,-8.307 83.525,42.979 110.632,41.49c21.012,-1.154 33.936,-16.19 45.547,-16.981c8.994,-0.613 15.253,13.862 24.12,12.234c11.224,-2.06 36.12,-26.384 47.391,-24.597c9.298,1.474 12.015,15.469 19.173,12.715c13.384,-5.149 37.877,-44.119 61.134,-43.609c23.256,0.509 65.91,40.979 82.571,46.666c7.87,2.686 12.7,-18.514 21.565,-16.712c9.162,1.862 28.293,22.49 38.506,23.523c8.43,0.853 12.612,-15.444 18.603,-13.153c11.598,4.433 21.695,14.098 33.423,12.274c28.032,-4.359 92.255,-60.076 105.603,-59.263c20.791,1.266 -28.983,71.923 -14.015,59.785c111.969,-90.803 168.931,-143.249 213.046,-208.429c27.667,-40.878 51.102,-68.303 70.375,-117.005c23.722,-59.947 41.137,-143.547 52.375,-220.073c16.689,-113.638 33.765,-276.521 29.696,-283.247c-0.646,-1.075 -1.315,-62.694 -1.488,-136.932c-0.309,-133.32 -1.916,-178.826 -8.539,-242.189l-3.217,-30.783l-11.897,-10.425c-18.697,-16.385 -67.027,-66.512 -81.033,-84.048c-51.158,-64.046 -105.072,-146.42 -173.757,-265.485c-28.032,-48.593 -52.263,-88.196 -69.059,-112.864c-10.792,-15.849 -11.878,-16.757 -33.393,-27.932c-60.583,-31.464 -118.474,-49.521 -208.49,-65.031c-80.926,-13.944 -129.369,-17.955 -214.753,-17.78c-85.311,0.175 -116.335,2.907 -179.018,15.767c-64.46,13.224 -98.903,24.132 -138.246,43.783c-25.536,12.755 -42.406,25.324 -67.682,50.43c-38.643,38.381 -63.701,82.618 -80.827,142.689c-7.664,26.883 -11.236,51.82 -13.604,94.962c-1.146,20.862 -3.442,44.56 -5.104,52.662c-3.749,18.275 -16.164,46.615 -37.971,86.675c-41.122,75.541 -50.975,106.313 -55.403,173.023c-1.993,30.027 -1.817,45.364 1.047,91.288c1.894,30.359 5.462,96.141 7.929,146.183c3.758,76.22 4.027,91.274 1.658,92.763c-5.307,3.334 7.422,93.845 31.633,224.924c26.985,146.098 52.975,229.779 82.323,297.65Zm582.826,155.633c-15.881,-16.886 -17.343,-17.919 -23.136,-16.343c-12.353,3.362 -14.831,1.539 -35.086,-25.81c-20.483,-27.657 -22.331,-29.5 -35.519,-35.43c-11.07,-4.977 -13.935,-9.291 -9.3,-14.002c2.717,-2.761 5.66,-2.621 24.827,1.176c60.749,12.037 138.264,11.253 188.702,-1.911c9.12,-2.38 18.338,-3.761 20.485,-3.068c6.004,1.937 4,11.87 -3.09,15.308c-7.095,3.441 -19.766,19.119 -35.966,44.506c-13.342,20.909 -17.249,23.531 -29.627,19.876c-9.397,-2.775 -15.364,1.035 -22.385,14.298c-5.269,9.957 -15.489,19.393 -21.025,19.416c-1.054,0 -9.557,-8.103 -18.88,-18.017l-0,0Zm-65.867,-183.933c-64.771,-3.804 -140.076,-14.951 -182.209,-26.972c-15.612,-4.454 -16.191,-4.211 -20.216,8.501c-3.394,10.717 -6.616,13.071 -12.326,9.006c-3.519,-2.506 -4.263,-4.558 -3.247,-8.962c4.476,-19.379 29.103,-50.27 38.94,-48.842c7.075,1.025 6.902,7.706 -0.392,15.358l-6.493,6.808l10.997,3.496c25.418,8.081 82.514,17.658 136.309,22.866c38.238,3.702 171.874,5.073 212.498,2.181c63.923,-4.551 124.967,-14.798 165.53,-27.786c28.68,-9.183 30.432,-9.51 32.563,-6.091c4.465,7.165 1.96,10.043 -14.287,16.41c-71.282,27.937 -220.175,42.102 -357.664,34.027l-0.002,-0Zm421.887,-31.219c-25.018,-26.115 -37.6,-33.922 -72.055,-44.708c-28.889,-9.044 -97.027,-22.387 -142.022,-27.812c-58.412,-7.042 -71.037,-11.323 -87.166,-29.557c-12.446,-14.071 -15.581,-25.853 -11.073,-41.612c5.112,-17.875 23.11,-30.075 51.758,-35.084c11.837,-2.069 16.671,-1.894 30.283,1.098c38.579,8.484 129.559,37.594 176.62,56.511c45.181,18.161 62.86,30.246 78.069,53.358c14.291,21.721 18.402,35.758 18.402,62.848c0,24.464 -1.843,28.013 -14.497,27.903c-5.345,-0.047 -9.971,-3.795 -28.319,-22.947l-0,0.002Zm-722.821,13.912c-5.706,-4.454 -8.173,-11.461 -8.147,-23.146c0.047,-21.559 9.202,-45.203 26.216,-67.707c17.953,-23.746 35.12,-31.918 142.558,-67.865c10.41,-3.483 28.657,-9.528 28.657,-9.528c0,0 87.709,-27.256 105.385,-27.226c24.16,0.031 53.851,11.538 62.804,24.32c10.375,14.81 6.809,38.686 -8.045,53.843c-15.579,15.899 -36.233,22.474 -93.629,29.805c-89.579,11.442 -152.639,26.447 -185.546,44.151c-7.8,4.196 -19.032,13.414 -29.346,24.082c-9.189,9.507 -18.761,18.344 -21.27,19.638c-5.951,3.07 -15.46,2.892 -19.637,-0.367l-0,-0.001Zm365.496,-199.07c-15.64,-3.767 -30.128,-11.09 -52.351,-26.463c-12.633,-8.738 -25.452,-16.521 -28.486,-17.295c-3.035,-0.773 -16.566,-0.2 -30.072,1.277c-22.09,2.414 -25.704,2.316 -36.006,-0.978c-21.149,-6.762 -36.695,-29.459 -36.695,-53.573c0,-23.156 10.649,-48.969 26.791,-64.938c8.505,-8.412 13.895,-9.411 17.696,-3.278c1.667,2.69 -0.187,6.319 -8.69,16.984c-14.541,18.246 -19.674,32.49 -18.729,51.968c0.872,18.07 7.385,29.923 19.683,35.855c6.724,3.243 10.52,3.546 25.772,2.052c41.239,-4.037 47.278,-2.557 76.119,18.657c28.411,20.899 54.94,29.126 81.048,25.134c19.185,-2.934 40.706,-13.433 55.999,-27.319c19.808,-17.987 26.742,-20.674 52.051,-20.169c24.801,0.494 30.754,-1.712 38.411,-14.233c3.692,-6.038 4.534,-10.613 4.495,-24.414c-0.047,-20.092 -5.671,-34.46 -19.504,-49.89c-9.009,-10.049 -9.894,-13.983 -3.996,-17.758c4.854,-3.107 12.867,3.066 23.013,17.728c11.704,16.914 16.222,31.153 16.222,51.132c0,13.835 -0.948,18.885 -5.149,27.304c-9.96,19.98 -30.778,30.65 -49.697,25.471c-15.864,-4.342 -29.19,0.731 -47.829,18.209c-22.591,21.186 -46.787,30.926 -75.889,30.555c-9.193,-0.126 -20.089,-1.024 -24.209,-2.018Zm104.596,-258.947c-3.645,-12.439 -6.988,-26.727 -9.923,-42.135c-6.551,-34.39 -11.072,-74.356 -12.385,-111.775c-1.812,-51.668 1.126,-65.013 11.928,-54.04c3.811,3.874 4.131,7.191 4.149,42.942c0.015,53.163 7.047,109.909 19.08,154.228c4.718,17.371 3.309,25.694 -4.346,25.694c-3.312,0 -5.002,-2.964 -8.502,-14.914Zm-475.132,-131.75c-57.701,-5.998 -104.943,-20.876 -131.339,-41.363c-9.823,-7.623 -10.051,-8.059 -8.76,-16.58c1.733,-11.429 17.441,-34.9 31.24,-46.682c45.671,-38.993 121.068,-59.455 194.152,-52.693c40.518,3.749 106.184,22.106 115.165,32.194c3.318,3.727 3.278,4.088 -0.69,6.247c-2.318,1.26 -5.767,2.292 -7.668,2.292c-2.589,0 -1.121,3.32 5.839,13.269c13.495,19.268 18.553,30.528 19.752,43.965c0.956,10.786 0.502,12.57 -4.9,19.098c-22.82,27.567 -133.469,48.498 -212.791,40.253l-0,0Zm98.804,-17.901c32.55,-4.096 53.603,-9.1 76.586,-18.204c23.197,-9.188 29.094,-14.353 27.101,-23.736c-4.961,-23.365 -30.375,-53.314 -56.292,-66.338c-26.294,-13.213 -36.079,-14.834 -88.763,-14.706c-45.789,0.11 -47.617,0.284 -71.398,6.719c-51.684,13.987 -90.633,38.629 -107.645,68.105c-5.108,8.851 -5.149,9.222 -1.346,12.258c19.509,15.608 65.251,30.783 110.633,36.702c23.891,3.116 83.412,2.687 111.132,-0.801l-0.007,-0Zm-72.074,-39.155c-17.105,-10.601 -18.534,-39.5 -2.55,-51.518c14.202,-10.678 32.543,-8.72 44.517,4.753c6.676,7.511 7.535,9.773 7.535,19.834c0,12.71 -5.721,23.766 -14.682,28.375c-8.101,4.166 -27.034,3.381 -34.82,-1.445l0,0.001Zm627.471,57.266c-63.32,-6.246 -111.538,-20.213 -131.602,-38.12c-6.965,-6.216 -7.769,-8.002 -7.769,-17.249c0,-14.374 6.459,-30.161 19.606,-47.912l11.217,-15.146l-6.461,0.285c-4.552,0.201 -6.676,-0.783 -7.191,-3.331c-1.811,-8.946 55.309,-28.752 100.476,-34.839c42.53,-5.731 91.823,-1.641 132.605,11.003c57.186,17.731 106.804,59.223 106.871,89.37c0.015,7.771 -0.975,9.649 -8.212,15.471c-19.792,15.935 -60.621,30.338 -104.902,37.009c-27.472,4.138 -80.108,5.878 -104.638,3.458l-0,-0Zm89.242,-17.106c39.247,-4.57 66.719,-12.091 93.141,-25.501c21.015,-10.665 22.687,-12.841 17.561,-22.869c-6.263,-12.254 -30.051,-34.488 -48.044,-44.904c-20.205,-11.696 -56.886,-24.395 -82.813,-28.669c-24.855,-4.098 -76.732,-4.192 -98.808,-0.18c-31.897,5.797 -47.34,13.854 -68.062,35.513c-16.348,17.083 -27.532,36.829 -26.576,46.911c0.548,5.801 2.295,7.799 11.097,12.707c20.249,11.294 61.624,22.488 99.206,26.84c22.547,2.611 81.43,2.698 103.299,0.154l-0,-0.003Zm-68.839,-35.432c-6.727,-1.712 -15.484,-8.917 -18.828,-15.49c-4.426,-8.701 -3.939,-25.052 0.987,-33.272c11.053,-18.428 40.344,-18.094 52.407,0.598c15.989,24.774 -6.016,55.431 -34.571,48.164l0.005,0Zm-859.022,-162.338c-7.768,-7.896 3.632,-32.373 26.842,-57.637c61.919,-67.394 129.738,-83.366 267.269,-62.942c33.471,4.97 56.982,10.771 72.019,17.769c26.752,12.449 45.481,47.518 35.676,66.793c-8.617,16.938 -22.574,16.462 -142.286,-4.848c-16.127,-2.871 -43.99,-6.302 -61.915,-7.625c-60.221,-4.443 -91.801,2.827 -160.579,36.968c-29.574,14.681 -32.901,15.716 -37.027,11.522Zm1066.73,-10.09c-86.937,-45.21 -138.026,-49.929 -265.142,-24.492c-67.394,13.486 -87.694,14.13 -98.518,3.128c-5.016,-5.099 -5.907,-7.718 -5.89,-17.317c0.031,-17.726 9.061,-34.455 25.385,-47.035c24.371,-18.782 123.284,-35.502 192.849,-32.599c69.342,2.894 105.714,18.476 151.662,64.975c26.715,27.035 42.12,54.395 35.319,62.726c-4.37,5.351 -10.359,3.774 -35.666,-9.386Zm-1190.238,640.777c7.209,-3.152 10.308,-5.727 10.308,-8.565c0,-2.232 -4.186,-26.714 -9.303,-54.405c-20.385,-110.316 -33.074,-192.599 -35.569,-230.637c-1.115,-16.993 -2.508,-23.357 -7.206,-32.906c-3.204,-6.512 -11.269,-25.509 -17.924,-42.217c-11.531,-28.948 -12.498,-30.584 -20.551,-34.76c-5.613,-2.911 -14.118,-4.742 -25.327,-5.453c-15.2,-0.964 -17.939,-0.522 -27.584,4.446c-19.253,9.917 -32.258,30.89 -41.675,67.206c-4.359,16.809 -6.089,79.605 -2.905,105.438c7.874,63.892 27.758,120.202 60.064,170.1c28.911,44.653 58.74,66.1 92.089,66.21c11.029,0.031 18.143,-1.203 25.585,-4.457Zm-90.851,-139.587c-1.707,-3.355 -5.129,-14.043 -7.605,-23.751c-10.157,-39.829 2.271,-85.92 26.616,-98.714l8.321,-4.373l-11.646,-14.267c-15.535,-19.033 -29.208,-30.05 -44.182,-35.599c-6.802,-2.521 -12.353,-5.65 -12.335,-6.953c0.153,-11.374 16.668,-11.742 33.543,-0.746c17.049,11.109 39.543,36.64 49.61,56.311c10.413,20.344 20.626,50.636 22.481,66.674c1.272,11.004 1.033,11.979 -3.276,13.369c-2.557,0.824 -5.514,0.62 -6.571,-0.454c-1.057,-1.076 -4.34,-10.924 -7.296,-21.888c-7.557,-28.032 -12.533,-38.146 -18.767,-38.146c-7.193,0 -18.583,16.817 -21.788,32.172c-3.365,16.116 -1.548,46.215 3.762,62.3c3.806,11.531 3.898,13.09 0.975,16.453c-4.635,5.333 -8.291,4.597 -11.843,-2.386l0.001,-0Zm1480.65,140.832c60.742,-18.712 119.705,-133.64 128.482,-250.432c3.406,-45.319 -1.083,-85.721 -12.997,-116.764c-5.822,-15.181 -18.863,-31.776 -30.378,-38.656c-8.481,-5.067 -12.195,-5.926 -25.626,-5.926c-13.506,0 -17.645,0.969 -29.512,6.907c-9.883,4.945 -14.426,8.564 -15.991,12.738c-6.818,18.182 -28.12,85.781 -29.702,94.256c-1.016,5.492 -3.314,27.55 -5.088,49.018c-4.015,48.578 -11.415,114.995 -21.085,189.192c-4.085,31.36 -6.951,57.504 -6.369,58.097c4.894,4.974 34.127,5.925 48.266,1.57l0,-0.001Zm33.659,-144.408c-0.682,-1.819 0.824,-9.223 3.37,-16.453c3.809,-10.84 4.609,-17.612 4.563,-38.62c-0.047,-22.768 -0.62,-26.733 -5.403,-37.306c-4.607,-10.194 -14.013,-21.076 -18.216,-21.076c-2.844,0 -7.71,10.7 -15.934,35.029c-6.759,20 -9.427,25.476 -12.408,25.476c-7.304,0 -8.664,-6.235 -4.705,-21.573c15.36,-59.529 60.9,-119.605 90.665,-119.605c13.676,0 13.794,13.072 0.142,15.681c-9.807,1.874 -29.334,18.326 -41.345,34.833c-9.288,12.767 -9.982,14.456 -6.71,16.36c8.542,4.97 19.252,18.677 23.546,30.135c10.383,27.702 10.362,59.962 -0.063,88.271c-3.992,10.846 -5.111,12.156 -10.367,12.156c-3.408,0 -6.419,-1.395 -7.141,-3.309l0.005,-0Z"
            style="fill:#212121;fill-rule:nonzero;" />
        <path d="M2223.246,1658.792c20.29,-11.175 61.109,64.36 7.179,70.335c-25.279,2.801 -32.298,-56.5 -7.179,-70.335Z"
            style="fill:#fff;fill-opacity:0.32;" />
    </g>
    <g id="Hair">
        <path
            d="M1695.833,620.833c0,0 -276.215,24.21 -383.333,220.833c-99.622,182.863 35.412,-292.34 237.5,-329.167c42.668,-7.775 57.413,-9.47 84.756,-1.944c91.2,25.104 127.744,85.277 127.744,85.277l-66.667,25Z"
            style="fill:#2d2d2d;" />
        <path
            d="M1783.333,583.333c-61.013,-37.284 -69.833,-376.186 154.167,-454.167c104.655,-36.433 344.352,12.019 387.5,29.167c54.557,21.681 144.963,61.55 191.667,91.667c57.35,36.981 200,191.667 200,191.667c103.438,99.189 201.489,199.512 245.833,333.333c23.446,70.756 30.792,201.556 22.456,302.233c-9.028,109.028 -66.735,325.947 -76.623,351.933c0,0 -36.806,6.944 -50,16.667c-13.194,9.722 -25,50 -25,50c0,0 -17.439,60.772 -16.667,45.833c6.152,-119.047 -10.007,-397.365 -16.707,-403.49c0,0 -52.054,-36.006 -71.452,-60.251c-27.447,-34.305 -64.636,-88.498 -97.396,-141.411c-51.848,-83.741 -68.771,-123.72 -99.009,-171.086c-24.67,-38.643 -48.162,-93.122 -82.421,-113.107c-113.092,-65.971 -191.557,-87.777 -456.782,-95.108c-70.369,-1.945 -145.969,8.046 -209.567,26.119Z"
            style="fill:#2d2d2d;" />
        <path d="M1791.667,583.333c-24.619,-105.505 -34.117,-246.925 129.167,-329.167"
            style="fill:none;stroke:#0d0d0d;stroke-width:12.5px;" />
        <path d="M1850,570.833c27.022,-110.108 138.046,-271.056 333.333,-254.167"
            style="fill:none;stroke:#0d0d0d;stroke-width:12.5px;" />
        <path
            d="M1933.333,562.5c0,0 194.491,-145.146 320.833,-87.5c155.488,70.945 277.047,319.692 295.833,350c36.503,58.889 88.401,143.749 139.79,216.665c44.02,62.462 118.634,117.571 172.71,145.835"
            style="fill:none;stroke:#0d0d0d;stroke-width:12.5px;" />
        <path
            d="M2525,512.5c0,0 33.743,-8.009 79.167,66.667c45.424,74.675 96.45,197.907 150,254.167c64.699,67.973 87.592,98.898 145.833,133.333"
            style="fill:none;stroke:#0d0d0d;stroke-width:12.5px;" />
        <path d="M1687.5,616.667c0.729,-4.38 -253.765,41.85 -333.333,162.5"
            style="fill:none;stroke:#0d0d0d;stroke-width:12.5px;" />
    </g>
</svg>
