<?xml version="1.0" encoding="UTF-8" standalone="no"?>
<!DOCTYPE svg PUBLIC "-//W3C//DTD SVG 1.1//EN" "http://www.w3.org/Graphics/SVG/1.1/DTD/svg11.dtd"><svg width="100%"
    height="100%" viewBox="0 0 4267 4267" version="1.1" xmlns="http://www.w3.org/2000/svg"
    xmlns:xlink="http://www.w3.org/1999/xlink" xml:space="preserve" xmlns:serif="http://www.serif.com/"
    style="fill-rule:evenodd;clip-rule:evenodd;stroke-linecap:round;stroke-linejoin:round;stroke-miterlimit:1.5;">
    <g id="character">
        <animateTransform attributeName="transform" type="rotate" dur="6s" values="0 2133.5 3800; -1 2133.5 3800; 0 2133.5 3800; 1 2133.5 3800; 0 2133.5 3800"
            repeatCount="indefinite" keyTimes="0; 0.25; 0.5; 0.75; 1" />
        <g id="Body">
            <g id="Cloth">
                <path
                    d="M1637.5,2775c0,0 -70.85,12.758 -108.333,45.833c-37.483,33.075 -108.333,95.833 -108.333,95.833c-504.631,191.358 -793.104,331.021 -904.167,441.667c-179.378,173.522 -313.189,589.76 -454.167,1000l4154.167,0c11.582,-1.251 -150.391,-774.565 -275,-962.5c-53.355,-80.47 -134.17,-142.141 -216.799,-192.089c-93.056,-56.25 -341.535,-145.411 -341.535,-145.411l-508.333,-191.667c-90.976,-84.656 -165.602,-123.894 -225,-120.833c16.389,47.942 44.847,82.085 87.5,100c45.1,309.591 -357.619,509.952 -545.833,470.833c-51.154,-0.505 -114.399,-0.547 -163.607,-8.621c-246.586,-40.462 -442.09,-182.171 -469.727,-437.212c33.584,-23.683 62.062,-53.229 79.167,-95.833Z"
                    style="fill:#d3d5e2;" />
            </g>
            <path id="neck-skin" serif:id="neck skin"
                d="M1645.833,2325c0,0 26.271,311.174 20.833,329.167c-5.438,17.993 -29.355,117.294 -33.333,125c-3.978,7.706 -47.498,83.767 -62.5,87.5c-15.002,3.733 -22.24,19.387 -8.333,62.5c13.906,43.113 50.441,150.764 162.5,241.667c112.059,90.903 153.987,88.104 200,108.333c46.013,20.229 217.784,64.053 366.667,37.5c90.095,-16.068 157.436,-33.472 207.602,-66.91c87.804,-58.525 101.694,-52.567 142.398,-112.256c72.999,-107.047 62.792,-84.862 75,-129.167c20.97,-76.107 35.495,-136.152 16.667,-158.333c-26.879,-31.666 -49.266,-41.752 -83.333,-95.833c-34.067,-54.081 -23.829,-106.782 -25,-137.5c-1.171,-30.718 1.508,-245.655 20.833,-291.667c19.325,-46.012 -73.397,69.016 -116.667,104.167c-69.461,56.427 -218.16,184.606 -345.833,200c-127.673,15.394 -230.951,-73.213 -270.833,-95.833c-78.596,-44.577 -116.682,-69.011 -154.167,-104.167c-37.485,-35.156 -112.5,-104.167 -112.5,-104.167Z"
                style="fill:#f9d32a;" />
            <path id="path1"
                d="M58.333,4355.995c0,-3.333 11.683,-42.589 15.277,-51.332c1.742,-4.237 8.858,-25.692 15.814,-47.679c21.884,-69.174 72.017,-214.81 92.687,-269.258c3.989,-10.509 16.787,-44.423 28.439,-75.366c11.652,-30.942 23.153,-61.035 25.556,-66.874c2.404,-5.838 11.357,-27.811 19.896,-48.828c8.539,-21.017 18.252,-44.423 21.584,-52.013c3.332,-7.59 13.24,-30.518 22.018,-50.951c49.893,-116.141 97.312,-206.126 141.522,-268.557c15.145,-21.388 67.14,-76.546 85.175,-90.358c36.328,-27.821 62.361,-46.983 76.259,-56.127c36.292,-23.881 61.281,-39.062 86.516,-52.56c8.615,-4.608 23.183,-12.53 32.373,-17.605c19.204,-10.605 58.283,-30.309 85.631,-43.176c10.338,-4.864 21.617,-10.351 25.063,-12.193c3.446,-1.842 21.303,-9.989 39.683,-18.103c18.379,-8.115 39.526,-17.53 46.993,-20.923c7.467,-3.393 17.335,-7.57 21.93,-9.284c4.595,-1.713 18.693,-7.539 31.328,-12.946c38.256,-16.372 109.584,-45.907 128.446,-53.187c9.764,-3.769 22.922,-9.045 29.24,-11.725c41.921,-17.785 52.652,-22.171 64.745,-26.461c7.467,-2.649 20.625,-7.858 29.24,-11.575c8.615,-3.717 34.931,-14.683 58.479,-24.369c23.549,-9.685 48.455,-20.064 55.347,-23.064c6.892,-2.999 19.11,-8.04 27.151,-11.202c8.041,-3.162 24.958,-10.737 37.594,-16.834c20.263,-9.777 25.636,-13.618 45.535,-32.556c45.287,-43.102 82.454,-72.289 115.284,-90.533c18.434,-10.244 51.448,-22.279 61.115,-22.279c5.39,0 6.615,-1.175 9.429,-9.023c7.712,-21.518 14.075,-54.283 18.245,-93.942c2.891,-27.495 2.375,-175.729 -0.676,-195.314c-0.724,-4.671 -1.86,-20.434 -2.518,-35.029c-0.652,-14.595 -2.076,-29.881 -3.153,-33.968c-1.071,-4.087 -4.461,-24.149 -7.517,-44.583l-5.557,-37.152c0,0 1019.849,-26.373 1019.804,-16.886c-0.047,11.093 -15.846,170.981 -16.86,175.092c-2.281,9.29 -3.64,127.607 -1.755,152.529c4.142,54.714 12.093,98.785 19.726,109.355c2.116,2.931 6.918,4.428 18.117,5.647c20.647,2.248 33.577,5.166 49.7,11.219c32.706,12.278 102.45,56.969 137.647,88.204c13.65,12.113 24.202,19.712 29.955,21.569c4.885,1.578 28.618,10.406 52.739,19.62c24.123,9.213 55.139,20.847 68.923,25.853c13.784,5.006 33.521,12.686 43.86,17.067c10.338,4.381 32.895,13.022 50.126,19.202c17.23,6.181 38.846,14.079 48.036,17.552c44.119,16.673 83.56,31.299 104.426,38.722c12.637,4.495 36.602,13.049 53.259,19.009c16.656,5.96 47.672,16.886 68.923,24.28c21.251,7.394 41.457,14.623 44.904,16.064c3.446,1.441 21.773,8.189 40.726,14.996c94.652,33.99 162.699,64.33 232.991,103.888c73.547,41.388 141.268,92.946 194.913,148.394c58.798,60.773 90.771,114.581 133.218,224.198c15.219,39.299 36.465,104.987 43.258,133.747c1.655,7.006 8.38,33.755 14.944,59.443c6.564,25.688 14.55,58.169 17.746,72.181c7.117,31.191 16.622,70.812 33.359,139.055c7.017,28.607 13.537,55.834 14.489,60.505c0.946,4.671 4.138,18.045 7.078,29.722c7.04,27.962 21.533,89.315 23.319,98.718c1.375,7.288 5.808,26.655 17.699,77.489c3.278,14.012 8.004,36.94 10.505,50.951c2.5,14.011 7.283,37.101 10.63,51.309c3.347,14.208 6.086,26.867 6.086,28.129c0,1.263 -3.685,2.296 -8.189,2.296c-7.26,0 -8.319,-0.66 -9.341,-5.838c-0.63,-3.211 -3.148,-16.825 -5.583,-30.252c-12.099,-66.666 -62.839,-286.785 -119.167,-516.945c-35.473,-144.949 -50.502,-195.425 -80.525,-270.44c-13.614,-34.018 -40.89,-89.958 -53.988,-110.731l-9.445,-14.977l-6.047,4.376c-11.633,8.422 -48.282,53.401 -68.393,83.94c-68.733,104.381 -137.692,245.063 -184.715,376.828c-6.876,19.266 -15.173,42.194 -18.441,50.951c-3.267,8.757 -9.383,28.82 -13.588,44.583c-4.206,15.763 -10.042,37.508 -12.969,48.322l-5.322,19.661l17.973,105.594c16.712,98.181 26.242,162.289 29.663,199.536l1.405,15.391l-7.54,0c-8.907,0 -8.113,2.486 -12.875,-40.337c-5.387,-48.431 -23.079,-160.815 -37.597,-238.835c-12.834,-68.963 -36.399,-232.436 -37.991,-263.543c-1.151,-22.643 -1.013,-23.75 3.276,-26.086c3.871,-2.105 4.761,-1.774 6.486,2.417c1.093,2.671 4.337,23.963 7.196,47.316c4.542,37.104 11.961,89.726 20.652,146.486l2.6,16.984l11.218,-40.336c6.17,-22.185 13.346,-46.069 15.946,-53.075c2.6,-7.006 9.643,-26.113 15.651,-42.459c45.895,-124.896 95.605,-230.049 154.052,-325.873c41.188,-67.527 61.15,-95.203 92.964,-128.886l16.458,-17.427l-13.115,-16.541c-37.34,-47.092 -102.042,-103.917 -168.122,-147.65c-81.496,-53.936 -166.104,-94.032 -299.111,-141.75c-26.081,-9.357 -53.531,-19.353 -60.997,-22.211c-7.467,-2.859 -49.761,-18.009 -93.986,-33.667c-101.621,-35.978 -184.618,-66.906 -334.169,-124.524c-39.63,-15.268 -72.845,-27.962 -73.811,-28.208c-0.961,-0.247 -1.627,10.062 -1.46,22.906c1.304,106.977 -37.337,220.367 -107.061,314.107c-44.95,60.434 -104.224,115.571 -164.357,152.889c-88.458,54.894 -170.05,83.309 -292.398,101.826c-49.253,7.455 -82.989,9.691 -146.095,9.682c-61.615,-0.015 -87.214,-1.806 -137.949,-9.687c-88.737,-13.785 -153.725,-31.692 -219.71,-60.541c-98.952,-43.261 -173.562,-92.816 -242.643,-161.161c-53.811,-53.237 -87.074,-98.161 -115.874,-156.497c-23.006,-46.6 -39.985,-112.558 -39.985,-155.331c0,-7.148 -0.823,-12.996 -1.829,-12.996c-1.005,0 -7.35,2.492 -14.098,5.538c-12.782,5.77 -64.114,27.753 -94.767,40.586c-9.764,4.087 -45.948,18.849 -80.409,32.804c-34.461,13.955 -73.935,30.012 -87.719,35.683c-13.784,5.671 -47.619,19.568 -75.188,30.882c-239.561,98.313 -354.939,155.277 -464.704,229.434c-74.196,50.126 -121.929,97.087 -163.773,161.125c-7.63,11.677 -14.388,23.258 -15.018,25.737c-0.709,2.788 1.606,10.076 6.068,19.107c8.127,16.451 35.896,81.71 63.124,148.347c10.019,24.52 28.797,69.899 41.73,100.842c12.933,30.942 32.03,76.799 42.439,101.903c10.409,25.104 27.975,66.661 39.036,92.349c11.061,25.688 26.858,63.317 35.103,83.62c10.375,25.546 15.224,35.353 15.747,31.845c0.416,-2.789 -0.303,-20.833 -1.595,-40.099c-6.932,-103.31 -8.558,-212.111 -3.28,-219.449c2.608,-3.626 2.86,-3.593 5.103,0.666c2.3,4.368 3.781,27.267 8.388,129.617c6.095,135.439 16.378,260.397 31.052,377.359l5.66,45.113l-7.667,0c-9.227,0 -7.59,6.89 -17.4,-73.243c-6.398,-52.266 -9.393,-82.014 -14.952,-148.493c-1.106,-13.215 -3.197,-20.803 -9.66,-35.029c-4.537,-9.988 -12.96,-29.624 -18.718,-43.636c-5.758,-14.011 -27.698,-66.555 -48.756,-116.764c-60.019,-143.102 -107.982,-258.199 -133.587,-320.569c-12.942,-31.526 -27.974,-67.351 -33.404,-79.612c-5.43,-12.26 -11.244,-25.51 -12.919,-29.446l-3.046,-7.154l-15.871,29.446c-54.674,101.436 -124.214,263.697 -192.765,449.795c-31.311,85.002 -52.127,145.127 -93.527,270.149l-34.623,104.556l-6.909,0c-3.802,0 -6.912,-0.986 -6.912,-2.19l-0.001,-0Zm2168.966,-891.612c154.241,-8.214 283.57,-46.219 383.407,-112.671c91.771,-61.082 162.839,-141.277 207.529,-234.182c33.618,-69.885 46.858,-123.809 48.637,-198.081c0.991,-41.658 0.783,-45.395 -2.831,-50.291c-7.089,-9.593 -34.101,-30.891 -67.291,-53.056c-39.612,-26.454 -63.898,-40.063 -83.731,-46.92c-15.967,-5.52 -47.28,-11.208 -49.467,-8.985c-2.22,2.258 18.141,33.647 30.439,46.927c12.051,13.011 31.386,29.64 32.796,28.206c0.444,-0.454 -1.197,-6.179 -3.667,-12.722c-5.046,-13.405 -4.196,-19.079 2.709,-18.06c6.096,0.901 11.143,10.172 16.66,30.602c6.817,25.251 6.769,81.769 -0.094,114.44c-7.169,34.111 -15.328,57.8 -31.541,91.568c-46.58,97.018 -125.036,175.225 -226.657,225.935c-56.108,27.999 -118.93,45.57 -205.723,57.543c-45.151,6.228 -136.154,7.692 -181.704,2.923c-146.683,-15.357 -275.099,-67.426 -383.022,-155.305c-77.338,-62.975 -135.36,-141.597 -154.64,-209.547c-6.822,-24.044 -10.34,-53.66 -8.477,-71.365c3.345,-31.786 15.829,-65.947 24.1,-65.947c5.991,0 7.311,5.576 3.329,14.064c-5.147,10.971 -4.162,12.913 3.029,5.97c14.718,-14.21 43.871,-56.625 40.957,-59.588c-2.048,-2.081 -27.683,6.123 -41.948,13.425c-33.777,17.29 -65.178,40.548 -111.983,82.943c-42.302,38.316 -38.486,31.818 -35.702,60.802c4.526,47.12 12.417,80.96 28.605,119.054c3.722,8.758 7.882,17.741 12.541,27.161c70.666,142.896 222.331,265.752 406.001,328.882c106.561,36.626 227.274,52.689 347.745,46.273l-0.004,0Zm32.373,-153.894c135.959,-15.414 228.645,-50.697 312.434,-118.934c52.02,-42.365 94.523,-96.057 124.319,-157.045c26.714,-54.678 38.052,-105.329 35.261,-157.511l-1.036,-19.518l-12.622,-8.282c-36.676,-24.066 -68.969,-70.662 -85.229,-122.983c-6.075,-19.551 -12.794,-74.381 -15.034,-122.67c-2.409,-51.982 11.694,-199.14 16.582,-261.736l1.299,-31.296c-34.019,-3.062 -984.712,-0.85 -984.789,8.833c-0.089,11.198 2.218,24.411 2.007,24.689c-0.209,0.277 1.826,15.314 4.524,33.412c7.811,52.381 11.443,104.063 12.699,180.695c1.225,75.186 -0.416,107.171 -7.829,151.786c-10.758,64.757 -39.052,120.465 -78.169,153.905c-18.197,15.556 -19.232,18.732 -17.168,52.697c7.089,116.641 141.342,262.91 309.646,337.361c73.058,32.318 148.663,51.062 241.083,59.772c28.004,2.639 106.143,0.891 142.022,-3.176l-0.001,-0Z"
                style="fill:#111113;fill-rule:nonzero;" />
            <path id="Body-light" serif:id="Body light"
                d="M2641.667,2312.5l-54.167,62.5c-39.017,208.433 -13.955,422.872 58.333,470.833c64.243,42.624 1085.437,343.296 1241.667,600c217.402,357.218 195.277,625.477 266.667,912.5l66.667,0c-17.243,-81.474 -50.691,-231.198 -50.691,-231.198c7.948,-22.926 -153.634,-638.277 -232.642,-731.302c-109.972,-129.483 -260.811,-229.008 -423.393,-288.234c-194.444,-70.833 -408.089,-156.432 -634.94,-236.766c-107.568,-76.311 -146.351,-110.335 -225,-120.833c-33.046,-137.066 -20.047,-289.045 -12.5,-437.5Z"
                style="fill:#fff;fill-opacity:0.32;" />
            <path id="body-shadow-left" serif:id="body shadow left"
                d="M1650,2337.5c40.244,39.66 84.686,86.012 125,112.5c0,0 9.722,286.806 -70.833,412.5c-80.556,125.694 -299.842,191.052 -462.5,262.5c-222.917,97.917 -592.552,164.055 -725,400c-127.083,226.389 -280.711,575.46 -362.5,833.333l-87.5,0c85.259,-298.144 199.921,-586.783 341.667,-866.667c-15.98,2.664 110.904,-165.317 233.333,-229.167c136.869,-71.38 391.026,-187.965 545.833,-250c191.694,-76.816 222.607,-85.74 316.667,-170.833c47.248,-42.744 103.652,-48.206 129.167,-70.833c72.478,-64.276 -6.782,-435.915 16.667,-433.333Z"
                style="fill:#2d2d2d;fill-opacity:0.19;" />
            <path id="left-arm-shadow" serif:id="left arm shadow"
                d="M658.333,3804.167c4.142,188.608 17.812,373.417 41.667,554.167l-50,0c-14.458,-157.057 -18.446,-347.14 8.333,-554.167Z"
                style="fill:#2d2d2d;fill-opacity:0.28;" />
            <path id="right-arm-shadow" serif:id="right arm shadow"
                d="M3591.667,3791.667l79.167,566.667l75,0l-154.167,-566.667Z" style="fill:#2d2d2d;fill-opacity:0.28;" />
        </g>
        <g id="Face">
            <path id="Face-Skin" serif:id="Face Skin"
                d="M1545.833,891.667c0,0 -2.237,110.599 -20.285,168.813c-32.941,106.247 -93.267,182.656 -83.881,168.687c-11.417,84.5 9.015,506.666 20.618,590.375c10.562,76.203 50.215,226.291 50.215,226.291c0,0 44.356,138.415 85.328,205.082c38.224,62.195 102.041,128.145 148.005,169.918c37.284,33.884 97.57,60.291 127.781,80.719c50.929,34.438 115.343,99.399 176.386,115.114c70.471,18.143 171.129,30.688 237.5,-4.167c54.498,-28.62 108.3,-76.021 149.95,-107.781c36.467,-27.808 104.217,-88.052 104.217,-88.052c0,0 85.485,-85.356 126.749,-139.944c66.667,-88.194 98.251,-214.222 98.251,-214.222c0,0 37.191,-177.697 45.371,-268.629c11.806,-131.25 -7.871,-543.871 -7.871,-543.871l-154.167,-191.667l-195.833,-308.333c-91.931,-43.456 -223.9,-75.78 -400,-95.833c-218.247,-18.489 -464.581,114.502 -508.333,237.5Z"
                style="fill:#f6d629;stroke:#000;stroke-width:16.67px;" />
            <path id="right-face-light" serif:id="right face light"
                d="M2795.833,1254.167c0,0 8.669,313.319 12.5,395.833c4.77,102.732 -21.52,265.482 -37.5,350c-19.031,100.654 -45.342,169.419 -79.167,229.167c-23.89,42.2 -110.872,142.222 -179.167,204.167c-60.694,55.051 -58.333,45.833 -58.333,45.833l8.333,-33.333c0,0 72.222,-64.583 137.5,-141.667c44.878,-52.995 98.77,-130.78 116.667,-208.333c29.167,-126.389 57.639,-357.639 58.333,-550c0.306,-84.733 -4.167,-320.833 -4.167,-320.833l25,29.167Z"
                style="fill:#fff;fill-opacity:0.3;" />
            <path id="Face-shadow" serif:id="Face shadow"
                d="M1854.167,2450c-51.389,-62.5 -105.882,-108.804 -145.833,-179.167c-46.528,-81.944 -99.26,-197.615 -125,-304.167c-29.861,-123.611 -54.167,-392.516 -54.167,-437.5c0,-84.722 1.318,-299.506 20.833,-375c26.389,-102.083 95.368,-295.279 175,-354.167c82.639,-61.111 271.345,-120.76 387.5,-104.167c262.5,37.5 273.687,91.034 345.833,195.833c79.545,115.546 203.78,322.571 345.833,358.333l-158.333,-195.833c-103.814,-160.246 -74.022,-131.187 -191.667,-308.333c-148.154,-52.447 -294.136,-84.405 -437.5,-91.667c-239.712,10.073 -419.183,130.566 -470.833,233.333c0,0 -4.363,118.167 -21.127,175.166c-17.361,59.028 -91.373,170.667 -91.373,170.667l12.5,412.5c0,0 28.472,281.944 62.5,395.833c29.881,100.011 58.244,186.425 125,266.667c68.75,82.639 112.083,124.803 225,183.333"
                style="fill:#2d2d2d;fill-opacity:0.26;" />
        </g>
        <g id="Ears">
            <path id="Ear-right" serif:id="Ear right"
                d="M2847.6,1953.835c2.976,-0.917 5.947,-2.064 8.909,-3.432c57.49,-26.545 111.226,-135.93 119.573,-247c3.406,-45.319 3.602,-87.953 -12.997,-116.764c-13.306,-23.094 -33.443,-47.704 -56.004,-44.582c-32.284,4.467 -83.521,68.701 -83.539,122.235c-0.014,41.6 -23.601,237.103 -32.541,275.474c-3.684,15.812 42.46,18.425 56.599,14.07l0,-0.001Z"
                style="fill:#f8d12d;fill-rule:nonzero;stroke:#000;stroke-width:16.67px;stroke-linecap:butt;stroke-miterlimit:2;" />
            <path id="Ear-left" serif:id="Ear left"
                d="M1432.216,1957.048c23.978,3.497 55.119,-11.23 52.559,-21.355c-0.547,-2.164 -43.963,-238.929 -49.039,-276.709c-7.253,-53.984 -67.413,-124.728 -111.093,-110.89c-20.646,6.541 -32.258,30.89 -41.675,67.206c-4.359,16.809 -6.089,79.605 -2.905,105.438c7.874,63.892 27.758,120.202 60.064,170.1c28.911,44.653 59.089,61.398 92.089,66.21Z"
                style="fill:#daab24;fill-rule:nonzero;stroke:#000;stroke-width:16.67px;stroke-linecap:butt;stroke-miterlimit:2;" />
            <path d="M1341.667,1633.333c0,0 32.21,12.312 59.115,50.038c13.58,19.042 15.432,26.953 20.052,62.462"
                style="fill:none;stroke:#000;stroke-width:16.67px;" />
            <path d="M1400.781,1683.371c0,0 -63.292,31.229 -25.781,137.462"
                style="fill:none;stroke:#000;stroke-width:16.67px;" />
            <path d="M2929.167,1600c0,0 -66.058,9.711 -79.167,108.333"
                style="fill:none;stroke:#000;stroke-width:16.67px;" />
            <path d="M2870.833,1650c15.976,-14.196 73.641,67.462 25,154.167"
                style="fill:none;stroke:#000;stroke-width:16.67px;" />
            <path
                d="M2862.5,1587.5c-2.977,4.557 17.064,-36.537 50,-37.5c16.319,-0.477 30.068,20.578 40.229,35.22c5.186,7.473 15.014,31.867 15.388,40.322c0.623,14.078 2.4,63.252 -1.451,91.125c-3.159,22.869 -2.867,20.091 -8.408,49.269c-5.437,28.626 -23.941,77.383 -40.471,109.756c-15.836,31.014 -56.006,69.334 -71.954,70.141c0,0 37.63,-40.196 54.167,-66.667c27.557,-44.109 51.954,-145.655 54.167,-195.833c1.509,-34.209 -2.269,-100.222 -37.5,-116.667c-17.529,-8.182 -58.333,25 -58.333,25l4.167,-4.167Z"
                style="fill:#fff;fill-opacity:0.3;" />
        </g>
        <g id="Beard">
            <path id="Mouse"
                d="M2071.702,2143.645c-64.771,-3.804 -140.076,-14.951 -182.209,-26.972c-15.612,-4.454 -16.191,-4.211 -20.216,8.501c-3.394,10.717 -6.616,13.071 -12.326,9.006c-3.519,-2.506 -4.263,-4.558 -3.247,-8.962c4.476,-19.379 29.103,-50.27 38.94,-48.842c7.075,1.025 6.902,7.706 -0.392,15.358l-6.493,6.808l10.997,3.496c25.418,8.081 82.514,17.658 136.309,22.866c38.238,3.702 171.874,5.073 212.498,2.181c63.923,-4.551 124.967,-14.798 165.53,-27.786c28.68,-9.183 30.432,-9.51 32.563,-6.091c4.465,7.165 1.96,10.043 -14.287,16.41c-71.282,27.937 -220.175,42.102 -357.664,34.027l-0.002,-0Z"
                style="fill:#121100;fill-rule:nonzero;" />
            <path id="Beard-all" serif:id="Beard all"
                d="M1873.62,2491.918c-8.229,-6.157 -34.879,-42.267 -19.729,-44.922c15.151,-2.655 84.603,37.405 110.632,41.49c16.007,2.512 33.936,-16.19 45.547,-16.981c8.994,-0.613 15.237,13.77 24.12,12.234c11.918,-2.06 36.297,-22.617 47.391,-24.597c7.549,-1.348 11.971,15.349 19.173,12.715c14.079,-5.149 42.044,-46.202 65.3,-43.609c23.256,2.593 57.576,54.174 74.238,59.166c12.43,3.724 15.025,-28.264 25.732,-29.212c10.706,-0.948 28.988,21.795 38.506,23.523c7.472,1.357 7.668,-11.845 18.603,-13.153c14.636,-1.751 22.06,15.704 33.423,12.274c25.949,-7.831 110.564,-71.109 122.269,-59.263c8.32,8.42 -8.22,45.603 -22.349,59.785c-31.592,31.71 -97.584,92.218 -183.872,130.473c-25.116,11.135 -70.829,16.175 -101.835,15.264c-184.672,-5.427 -232.236,-86.616 -297.148,-135.186Zm263.949,-164.34c-15.881,-16.886 -17.343,-17.919 -23.136,-16.343c-12.353,3.362 -14.831,1.539 -35.086,-25.81c-20.483,-27.657 -22.331,-29.5 -35.519,-35.43c-11.07,-4.977 -13.935,-9.291 -9.3,-14.002c2.717,-2.761 5.66,-2.621 24.827,1.176c60.749,12.037 138.264,11.253 188.702,-1.911c9.12,-2.38 18.338,-3.761 20.485,-3.068c6.004,1.937 4,11.87 -3.09,15.308c-7.095,3.441 -19.766,19.119 -35.966,44.506c-13.342,20.909 -17.249,23.531 -29.627,19.876c-9.397,-2.775 -15.364,1.035 -22.385,14.298c-5.269,9.957 -15.489,19.393 -21.025,19.416c-1.054,0 -9.557,-8.103 -18.88,-18.017l-0,0Zm356.02,-215.152c-25.018,-26.115 -37.6,-33.922 -72.055,-44.708c-28.889,-9.044 -97.027,-22.387 -142.022,-27.812c-58.412,-7.042 -71.037,-11.323 -87.166,-29.557c-12.446,-14.071 -15.581,-25.853 -11.073,-41.612c5.112,-17.875 23.11,-30.075 51.758,-35.084c11.837,-2.069 16.671,-1.894 30.283,1.098c38.579,8.484 129.559,37.594 176.62,56.511c45.181,18.161 62.86,30.246 78.069,53.358c14.291,21.721 18.402,35.758 18.402,62.848c0,24.464 -1.843,28.013 -14.497,27.903c-5.345,-0.047 -9.971,-3.795 -28.319,-22.947l-0,0.002Zm-722.821,13.912c-5.706,-4.454 -8.173,-11.461 -8.147,-23.146c0.047,-21.559 9.202,-45.203 26.216,-67.707c17.953,-23.746 35.12,-31.918 142.558,-67.865c10.41,-3.483 28.657,-9.528 28.657,-9.528c0,0 87.709,-27.256 105.385,-27.226c24.16,0.031 53.851,11.538 62.804,24.32c10.375,14.81 6.809,38.686 -8.045,53.843c-15.579,15.899 -36.233,22.474 -93.629,29.805c-89.579,11.442 -152.639,26.447 -185.546,44.151c-7.8,4.196 -19.032,13.414 -29.346,24.082c-9.189,9.507 -18.761,18.344 -21.27,19.638c-5.951,3.07 -15.46,2.892 -19.637,-0.367l-0,-0.001Z"
                style="fill:#2e3130;fill-rule:nonzero;stroke:#100d07;stroke-width:8.33px;stroke-linecap:butt;stroke-miterlimit:2;" />
        </g>
        <g id="Eyes">
            <path id="left-eyeball" serif:id="left eyeball"
                d="M1637.5,1487.5c-6.054,3.274 110.053,52.928 174.043,49.955c90.464,-4.204 163.28,-28.663 175.957,-45.788c23.137,-31.255 -81.034,-109.497 -170.833,-104.167c-116.457,6.913 -192.457,90.969 -179.167,100Z"
                style="fill:#fff;stroke:#212121;stroke-width:6px;transform-box: fill-box; transform-origin: center;" vector-effect="non-scaling-stroke">
                <animateTransform attributeName="transform" type="scale" values="1 1; 1 0.1; 1 0.1; 1 1; 1 1"
                    keyTimes="0; 0.05; 0.15; 0.2; 1" dur="2s" repeatCount="indefinite" additive="sum" />
            </path>
            <ellipse id="left-pupil" serif:id="left pupil" cx="1810.417" cy="1454.167" rx="31.25" ry="29.167"
                style="fill:#292929;transform-origin: center;transform-box: fill-box;">
                <animateTransform attributeName="transform" type="scale" values="1 1; 1 0; 1 0; 1 1; 1 1"
                    keyTimes="0; 0.05; 0.15; 0.2; 1" dur="2s" repeatCount="indefinite" additive="sum" />
            </ellipse>
            <path id="right-eyeball" serif:id="right eyeball"
                d="M2629.167,1483.333c0,0 -73.336,46.173 -179.167,50c-51.826,1.874 -177.995,-30.171 -162.5,-54.167c15.495,-23.996 50.145,-90.825 175,-87.5c124.855,3.325 156.401,68.432 166.667,91.667"
                style="fill:#fff;stroke:#212121;stroke-width:6px;transform-box: fill-box; transform-origin: center;" vector-effect="non-scaling-stroke">
                <animateTransform attributeName="transform" type="scale" values="1 1; 1 0.1; 1 0.1; 1 1; 1 1"
                    keyTimes="0; 0.05; 0.15; 0.2; 1" dur="2s" repeatCount="indefinite" additive="sum" />
            </path>
            <ellipse id="right-pupil" serif:id="right pupil" cx="2452.083" cy="1454.167" rx="31.25" ry="29.167"
                style="fill:#292929;transform-origin: center;transform-box: fill-box;">
                <animateTransform attributeName="transform" type="scale" values="1 1; 1 0; 1 0; 1 1; 1 1"
                    keyTimes="0; 0.05; 0.15; 0.2; 1" dur="2s" repeatCount="indefinite" additive="sum" />
            </ellipse>
            <path id="Left-eyebrow" serif:id="Left eyebrow"
                d="M1583.333,1320.833c4.61,6.061 87.139,-39.471 133.333,-45.833c64.799,-8.925 209.028,27.083 254.167,25c11.854,-0.547 19.444,-24.306 16.667,-37.5c-2.778,-13.194 -16.002,-33.501 -45.833,-45.833c-42.811,-17.699 -162.52,-30.594 -225,-16.667c-92.979,20.725 -156.726,124.241 -133.333,120.833Z"
                style="fill:#3b3434;stroke:#000;stroke-width:16.67px;" />
            <path id="Right-eyebrow" serif:id="Right eyebrow"
                d="M2687.5,1325c-9.388,10.259 -97.899,-41.492 -150,-45.833c-66.667,-5.556 -206.25,25.694 -245.833,16.667c-20.714,-4.724 -11.5,-57.725 8.333,-70.833c47.059,-31.102 170.026,-40.043 233.333,-29.167c85.918,14.76 178.103,103.008 154.167,129.167Z"
                style="fill:#3b3434;stroke:#000;stroke-width:16.67px;" />
        </g>
        <g id="Nose">
            <path id="nose-spot" serif:id="nose spot"
                d="M2231.58,1750.459c20.29,-11.175 61.109,64.36 7.179,70.335c-25.279,2.801 -32.298,-56.5 -7.179,-70.335Z"
                style="fill:#fff;fill-opacity:0.5;" />
            <path id="nose-light" serif:id="nose light"
                d="M2220.833,1420.833c15.112,4.199 10.485,205.368 29.167,245.833c20.677,44.788 -24.212,21.249 -36.005,-12.786c-26.101,-75.331 -10.953,-237.991 6.838,-233.047Z"
                style="fill:#fff;fill-opacity:0.5;" />
            <path id="Nose-tip" serif:id="Nose tip"
                d="M2314.481,1764.115c11.704,16.914 24.555,43.653 24.555,63.632c0,13.835 -0.948,18.885 -5.149,27.304c-9.96,19.98 -30.778,30.65 -49.697,25.471c-15.864,-4.342 -29.19,0.731 -47.829,18.209c-22.591,21.186 -46.787,30.926 -75.889,30.555c-9.193,-0.126 -20.089,-1.024 -24.209,-2.018c-15.64,-3.767 -30.128,-11.09 -52.351,-26.463c-12.633,-8.738 -25.452,-16.521 -28.486,-17.295c-3.035,-0.773 -16.566,-0.2 -30.072,1.277c-22.09,2.414 -25.704,2.316 -36.006,-0.978c-21.149,-6.762 -36.695,-29.459 -36.695,-53.573c0,-23.156 10.649,-48.969 26.791,-64.938"
                style="fill:none;fill-rule:nonzero;stroke:#000;stroke-width:16.67px;stroke-linecap:butt;stroke-miterlimit:2;" />
            <path id="nose-curve" serif:id="nose curve" d="M2250,1687.5c-19.928,-72.1 -28.164,-147.124 -25,-225"
                style="fill:none;stroke:#212121;stroke-width:16.67px;" />
        </g>
        <g id="Hair">
            <path id="Hair-base" serif:id="Hair base"
                d="M1691.667,483.333c0,0 23.018,-329.435 437.5,-287.5c410.185,41.5 559.79,273.43 579.167,300c24.588,33.716 59.633,63.604 89.776,94.527c6.391,1.704 57.431,69.366 85.224,92.973c27.948,23.739 75.326,139.15 102.654,213.112c61.446,166.301 -65.154,641.055 -65.154,641.055c-60.892,7.07 -69.367,54.846 -95.833,120.833c-5.092,-144.977 -9.175,-258.858 -12.5,-412.5c-97.29,-92.695 -222.28,-279.18 -354.167,-504.167c-193.785,-72.422 -412.173,-110.007 -545.833,-87.5c-124.733,21.004 -196.64,66.314 -258.333,104.167c-48.81,29.948 -97.608,90.352 -116.667,137.5c3.593,52.911 -13.777,145.261 -20.833,166.667c-12.269,37.218 -34.525,96.282 -83.333,166.667c-9.634,94.777 7.26,336.796 8.333,420.833c3.921,-3.611 -34.809,-81.727 -54.167,-95.833c-20.175,-14.702 -45.843,-19.521 -58.333,-16.667c0,0 -23.69,-98.823 -47.995,-141.878c-22.538,-39.925 -47.838,-128.955 -47.838,-128.955c-17.53,-66.323 -24.501,-134.374 -20.833,-204.167c0,0 -28.421,83.17 -33.333,62.5c-63.418,-266.827 177.434,-694.044 512.5,-641.667Z"
                style="fill:#3b3b3b;stroke:#000;stroke-width:16.67px;" />
            <path id="Hair-shadow" serif:id="Hair shadow"
                d="M1841.667,245.833c-59.929,33.428 -131.717,97.216 -150,237.5c-446.649,-48.668 -570.813,521.186 -512.5,641.667c10.016,20.694 33.333,-62.5 33.333,-62.5c-9.031,169.9 44.204,327.79 116.667,475c57.304,-1.916 87.313,43.077 112.5,108.333c-7.26,-132.537 -9.745,-271.841 -8.333,-416.667c73.429,-99.342 107.204,-207.367 104.167,-329.167c17.887,-62.991 73.809,-116.362 158.333,-162.5c-159.633,-10.614 -333.424,96.139 -400,195.833c9.229,-110.187 176.591,-297.304 245.833,-320.833c71.528,-24.306 149.987,32.795 216.667,87.5l41.667,-16.667c-113.334,-234.05 41.667,-437.5 41.667,-437.5Z"
                style="fill:#2c2c2c;" />
            <path d="M1804.167,683.333c-24.619,-105.505 -38.283,-255.258 125,-337.5"
                style="fill:none;stroke:#0d0d0d;stroke-width:12.5px;" />
            <path d="M1858.333,662.5c27.022,-110.108 138.046,-271.056 333.333,-254.167"
                style="fill:none;stroke:#0d0d0d;stroke-width:12.5px;" />
            <path
                d="M1941.667,654.167c0,0 194.491,-145.146 320.833,-87.5c155.488,70.945 277.047,319.692 295.833,350c36.503,58.889 96.734,131.249 148.123,204.165c44.02,62.462 110.301,130.071 164.377,158.335"
                style="fill:none;stroke:#0d0d0d;stroke-width:12.5px;" />
            <path
                d="M2533.333,604.167c0,0 33.743,-8.009 79.167,66.667c45.424,74.675 96.45,197.907 150,254.167c64.699,67.973 87.592,98.898 145.833,133.333"
                style="fill:none;stroke:#0d0d0d;stroke-width:12.5px;" />
            <path d="M1708.333,729.167c0.729,-4.38 -266.265,21.017 -345.833,141.667"
                style="fill:none;stroke:#0d0d0d;stroke-width:12.5px;" />
        </g>
    </g>
</svg>
